<?xml version="1.0" encoding="UTF-8" standalone="no"?>
<!-- Created with Inkscape (http://www.inkscape.org/) -->

<svg
   xmlns:dc="http://purl.org/dc/elements/1.1/"
   xmlns:cc="http://creativecommons.org/ns#"
   xmlns:rdf="http://www.w3.org/1999/02/22-rdf-syntax-ns#"
   xmlns:svg="http://www.w3.org/2000/svg"
   xmlns="http://www.w3.org/2000/svg"
   xmlns:sodipodi="http://sodipodi.sourceforge.net/DTD/sodipodi-0.dtd"
   xmlns:inkscape="http://www.inkscape.org/namespaces/inkscape"
   width="1000"
   height="808.57703"
   viewBox="0 0 1000 808.57704"
   id="svg4469"
   version="1.1"
   inkscape:version="0.91 r13725"
   sodipodi:docname="Looney-Tunes-Logo.svg">
  <defs
     id="defs4471" />
  <sodipodi:namedview
     id="base"
     pagecolor="#ffffff"
     bordercolor="#666666"
     borderopacity="1.0"
     inkscape:pageopacity="0.0"
     inkscape:pageshadow="2"
     inkscape:zoom="0.35"
     inkscape:cx="-60.714286"
     inkscape:cy="520"
     inkscape:document-units="px"
     inkscape:current-layer="layer1"
     showgrid="false"
     units="px"
     inkscape:window-width="1366"
     inkscape:window-height="705"
     inkscape:window-x="-8"
     inkscape:window-y="-8"
     inkscape:window-maximized="1" />
  <metadata
     id="metadata4474">
    <rdf:RDF>
      <cc:Work
         rdf:about="">
        <dc:format>image/svg+xml</dc:format>
        <dc:type
           rdf:resource="http://purl.org/dc/dcmitype/StillImage" />
        <dc:title></dc:title>
      </cc:Work>
    </rdf:RDF>
  </metadata>
  <g
     inkscape:label="Layer 1"
     inkscape:groupmode="layer"
     id="layer1"
     transform="translate(0,-243.78521)">
    <path
       inkscape:connector-curvature="0"
       id="path7434"
       style="fill:#e1393e;fill-opacity:1;fill-rule:nonzero;stroke:none"
       d="M 519.04792,247.87772 C 721.96715,251.45765 883.05933,416.94425 879.3899,617.2283 875.52618,817.72032 708.15369,977.2454 505.22776,973.46431 302.22808,969.88713 140.88113,804.61056 144.68452,604.1206 148.47462,403.83246 316.1287,244.29781 519.04792,247.87772" />
    <path
       inkscape:connector-curvature="0"
       id="path7438"
       style="fill:#000000;fill-opacity:1;fill-rule:nonzero;stroke:none"
       d="M 518.98344,251.90767 C 318.68604,248.44008 152.61356,406.5113 148.93578,604.17758 145.06369,802.05184 304.91439,965.9695 505.09111,969.44119 705.39522,973.10995 871.60861,815.03396 875.15876,617.17063 879.11143,419.29361 719.28754,255.57642 518.98344,251.90767 m -14.0146,725.79458 C 300.31291,973.97992 136.85227,806.35851 140.57405,604.05882 144.5172,401.7516 314.17489,240.13502 519.11241,243.84779 c 204.72955,3.51842 368.10974,171.14259 364.50864,373.43818 -4.00349,202.30926 -173.72139,363.9279 -378.65221,360.41628" />
    <path
       inkscape:connector-curvature="0"
       id="path7442"
       style="fill:#f9a13a;fill-opacity:1;fill-rule:nonzero;stroke:none"
       d="M 518.05659,301.70209 C 345.56664,298.69974 202.51308,434.84337 199.33495,605.12407 196.14298,775.58649 333.73106,916.69793 506.22101,919.70029 678.71097,922.70266 821.50988,786.76906 824.78175,616.2838 828.06112,446.0198 690.35237,304.91245 518.05659,301.70209 M 506.05104,926.55325 C 329.73221,923.47955 189.13812,779.24801 192.40836,605.15796 195.65098,430.8473 341.70672,291.78227 518.02555,294.85597 c 176.32554,3.27486 316.95986,147.50504 313.8103,321.59101 -3.35001,174.1129 -149.4661,313.17999 -325.78481,310.10627" />
    <path
       inkscape:connector-curvature="0"
       id="path7446"
       style="fill:#f9a13a;fill-opacity:1;fill-rule:nonzero;stroke:none"
       d="M 517.15584,352.26092 C 372.67433,349.71695 253.21013,463.531 250.52358,606.18473 247.80997,748.63798 362.84687,866.7516 507.12723,869.30241 651.4076,871.85321 770.98634,757.85404 773.59939,615.40418 776.41276,472.92741 661.23507,354.81856 517.15584,352.26092 M 506.95727,876.15537 C 358.84815,873.53323 240.60409,752.30633 243.36879,606.02496 246.15304,459.72279 369.01555,342.79264 517.12467,345.41479 c 148.10925,2.62214 266.21238,123.85383 263.52882,270.15258 -2.8855,146.28546 -125.38597,263.20331 -273.69622,260.588" />
    <path
       inkscape:connector-curvature="0"
       id="path7450"
       style="fill:#f9a13a;fill-opacity:1;fill-rule:nonzero;stroke:none"
       d="M 515.84666,402.65235 C 399.98385,400.74744 303.8066,492.22203 301.46458,607.07253 299.29674,721.71573 391.95733,816.64434 508.02799,818.7436 624.29991,820.836 720.47032,729.16026 722.61804,614.51776 724.96634,499.84829 632.11845,404.74477 515.84666,402.65235 m -7.98864,422.9442 C 387.95849,823.42597 292.29188,725.37723 294.5915,606.9032 296.83065,488.43121 396.12393,393.82997 516.01663,395.79939 636.1173,397.96314 731.89063,496.1895 729.67227,614.68092 727.25197,733.15907 627.95869,827.7603 507.85802,825.59655" />
    <g
       id="g7636"
       transform="matrix(20.115582,-0.6832349,-0.6832349,-20.115582,482.9907,585.58128)">
      <path
         d="m -0.01,-23.088 c -0.21,0.13 -0.45,0.24 -0.64,0.4 -0.36,0.28 -0.73,0.61 -1.01,1 -0.45,0.62 -0.77,1.28 -0.95,2.02 -0.08,0.34 -0.12,0.68 -0.17,1.03 -0.01,0.14 -0.02,0.28 -0.03,0.42 -0.02,0.38 0,0.75 0.01,1.12 0.01,0.13 0.02,0.26 0.04,0.38 0.01,0.03 0.04,0.03 0.07,0.03 0.18,0.02 0.36,0.06 0.54,0.08 0.02,0.01 0.04,0.02 0.04,0.04 0.02,0.09 0.04,0.19 0.07,0.28 0.18,0.04 0.37,0.06 0.55,0.11 l 0.02,0.02 c 0.03,0.11 0.05,0.24 0.07,0.35 l 0.02,0.01 c 0.39,0.06 0.77,0.1 1.16,0.16 l 0.51,0.07 0.09,0 0.65,-0.12 c 0.14,-0.031 0.28,-0.06 0.41,-0.08 l 0.52,-0.11 c 0.02,0 0.03,-0.02 0.04,-0.05 0.02,-0.1 0.03,-0.21 0.06,-0.3 l 0.03,-0.02 c 0.18,-0.05 0.37,-0.1 0.55,-0.15 l 0.01,-0.02 c 0.03,-0.1 0.06,-0.2 0.09,-0.29 0.02,-0.07 0.12,-0.06 0.18,-0.08 l 0.48,-0.13 c 0.02,-0.01 0.03,-0.02 0.04,-0.04 0,-0.13 0.01,-0.26 0,-0.4 0.01,-0.42 -0.05,-0.82 -0.11,-1.22 -0.04,-0.28 -0.08,-0.57 -0.16,-0.84 -0.08,-0.28 -0.17,-0.57 -0.3,-0.83 -0.01,-0.05 -0.04,-0.09 -0.05,-0.13 -0.3,-0.6 -0.68,-1.17 -1.18,-1.65 -0.34,-0.36 -0.77,-0.68 -1.2,-0.93 -0.11,-0.05 -0.23,-0.12 -0.34,-0.18 -0.04,0.01 -0.08,0.03 -0.11,0.05"
         style="fill:#000000;fill-opacity:1;fill-rule:nonzero;stroke:none"
         id="path7638"
         inkscape:connector-curvature="0"
         sodipodi:nodetypes="cccccccccccccccccccccccccccccccccccccccc" />
    </g>
    <g
       id="g7640"
       transform="matrix(20.115582,-0.6832349,-0.6832349,-20.115582,440.12898,924.54304)">
      <path
         d="m 0,0 c -0.01,-0.12 -0.02,-0.24 -0.03,-0.34 l 0,-0.06 c -0.01,-0.35 -0.03,-0.7 -0.01,-1.05 0,-0.13 0.02,-0.26 0.03,-0.38 l 0,-0.04 0.02,-0.14 c 0.04,-0.3 0.08,-0.59 0.15,-0.88 0.16,-0.69 0.48,-1.34 0.93,-2 0.26,-0.339 0.6,-0.679 1,-0.989 0.16,-0.12 0.34,-0.22 0.5,-0.31 0.05,-0.03 0.09,-0.05 0.13,-0.08 0.03,-0.01 0.05,-0.03 0.07,-0.03 0.04,0.02 0.09,0.04 0.13,0.07 0.06,0.03 0.14,0.06 0.2,0.09 0.44,0.27 0.86,0.59 1.17,0.92 0.46,0.439 0.85,0.979 1.16,1.629 0,0.01 0.01,0.03 0.02,0.05 0.01,0.02 0.02,0.04 0.03,0.06 0.14,0.28 0.22,0.58 0.3,0.84 0.08,0.27 0.13,0.57 0.16,0.83 0.06,0.4 0.12,0.8 0.11,1.21 0.01,0.12 0,0.24 0,0.36 l 0,0.01 -0.46,0.13 C 5.58,-0.09 5.57,-0.09 5.54,-0.09 5.48,-0.08 5.4,-0.06 5.37,0.02 5.36,0.07 5.35,0.11 5.33,0.15 5.32,0.2 5.3,0.25 5.29,0.3 5.19,0.33 5.09,0.36 4.99,0.38 L 4.74,0.45 4.7,0.48 4.69,0.51 C 4.67,0.58 4.66,0.65 4.64,0.72 c 0,0.03 -0.01,0.07 -0.01,0.1 l -0.5,0.1 C 4.05,0.93 3.98,0.95 3.9,0.96 3.84,0.97 3.78,0.99 3.72,1 L 3.08,1.12 3,1.11 2.49,1.05 C 2.27,1.01 2.05,0.99 1.83,0.96 1.68,0.94 1.53,0.92 1.37,0.9 1.35,0.86 1.35,0.82 1.34,0.77 1.33,0.71 1.31,0.64 1.3,0.58 L 1.29,0.56 1.24,0.52 1.23,0.51 C 1.12,0.48 1.02,0.46 0.91,0.44 0.85,0.43 0.78,0.42 0.72,0.41 0.71,0.36 0.7,0.32 0.69,0.27 0.68,0.23 0.68,0.2 0.67,0.17 0.66,0.13 0.62,0.09 0.58,0.09 0.5,0.08 0.44,0.07 0.37,0.05 0.26,0.04 0.14,0.02 0.02,0 0.02,0 0.01,0 0,0 m 2.81,-6.449 -0.02,0 c -0.05,0.01 -0.09,0.03 -0.12,0.05 -0.06,0.04 -0.1,0.06 -0.15,0.08 -0.17,0.1 -0.36,0.2 -0.51,0.33 -0.42,0.32 -0.77,0.66 -1.03,1.02 C 0.5,-4.3 0.19,-3.63 0.03,-2.92 c -0.08,0.3 -0.12,0.58 -0.16,0.89 l -0.03,0.18 c -0.01,0.13 -0.02,0.26 -0.02,0.39 -0.02,0.36 0,0.72 0.01,1.06 l 0,0.06 c 0,0.12 0.01,0.25 0.04,0.39 l 0,0.02 c 0.03,0.06 0.08,0.07 0.11,0.07 l 0.02,0 c 0.12,0.02 0.24,0.04 0.35,0.05 0.06,0.01 0.12,0.02 0.18,0.03 0,0.02 0.01,0.05 0.01,0.07 0.02,0.07 0.04,0.14 0.05,0.2 L 0.61,0.53 0.65,0.54 C 0.73,0.56 0.81,0.57 0.89,0.58 0.98,0.6 1.07,0.62 1.17,0.64 1.18,0.69 1.19,0.75 1.2,0.8 1.21,0.86 1.22,0.92 1.24,0.97 l 0,0.02 0.05,0.04 0.02,0.01 C 1.48,1.06 1.65,1.08 1.81,1.1 2.03,1.13 2.25,1.15 2.46,1.19 L 3.08,1.27 3.09,1.26 3.74,1.14 C 3.81,1.13 3.87,1.11 3.94,1.1 4.01,1.09 4.08,1.07 4.16,1.06 L 4.67,0.95 C 4.75,0.94 4.77,0.88 4.77,0.86 4.77,0.81 4.79,0.78 4.79,0.74 4.8,0.68 4.81,0.63 4.83,0.57 L 5.02,0.52 C 5.14,0.49 5.25,0.46 5.36,0.43 L 5.39,0.42 5.42,0.37 C 5.44,0.3 5.45,0.25 5.47,0.19 5.48,0.15 5.49,0.11 5.51,0.07 5.51,0.06 5.55,0.06 5.58,0.05 5.61,0.05 5.63,0.04 5.65,0.03 L 6.12,-0.09 C 6.16,-0.1 6.2,-0.14 6.21,-0.2 l 0,-0.04 c 0,-0.11 0.01,-0.24 0,-0.36 C 6.22,-1.02 6.16,-1.42 6.1,-1.83 6.07,-2.09 6.02,-2.4 5.94,-2.68 5.86,-2.95 5.77,-3.25 5.64,-3.52 5.64,-3.54 5.63,-3.57 5.61,-3.6 5.61,-3.61 5.59,-3.63 5.59,-3.64 5.26,-4.31 4.86,-4.87 4.39,-5.319 c -0.31,-0.33 -0.75,-0.67 -1.2,-0.94 -0.07,-0.04 -0.13,-0.07 -0.21,-0.1 -0.05,-0.03 -0.1,-0.05 -0.15,-0.08"
         style="fill:#000000;fill-opacity:1;fill-rule:nonzero;stroke:none"
         id="path7642"
         inkscape:connector-curvature="0" />
    </g>
    <g
       id="g7644"
       transform="matrix(20.115582,-0.6832349,-0.6832349,-20.115582,500.14512,1037.2755)">
      <path
         d="M 0,0 C 0.09,0.03 0.17,0.09 0.26,0.14 0.52,0.3 0.74,0.49 0.96,0.68 1.25,0.91 1.49,1.17 1.69,1.46 2.04,1.96 2.32,2.52 2.5,3.12 L 2.52,3.19 C 2.59,3.46 2.63,3.74 2.68,4.01 L 2.7,4.2 2.7,4.19 C 2.74,4.49 2.76,4.81 2.75,5.1 2.75,5.12 2.73,5.14 2.72,5.14 2.6,5.19 2.46,5.21 2.33,5.24 2.27,5.26 2.2,5.26 2.16,5.289 2.12,5.359 2.12,5.44 2.1,5.51 2.09,5.549 2.09,5.599 2.07,5.629 c -0.16,0.06 -0.33,0.08 -0.49,0.12 -0.05,0.01 -0.1,0.01 -0.13,0.05 -0.03,0.09 -0.03,0.2 -0.06,0.3 -0.07,0.03 -0.15,0.04 -0.23,0.06 -0.29,0.07 -0.59,0.13 -0.89,0.18 -0.37,-0.04 -0.74,-0.1 -1.1,-0.15 -0.05,-0.01 -0.11,-0.01 -0.16,-0.03 -0.04,-0.11 -0.06,-0.22 -0.09,-0.33 -0.01,-0.02 -0.03,-0.03 -0.06,-0.03 -0.17,-0.02 -0.33,-0.04 -0.49,-0.07 -0.01,0 -0.03,-0.01 -0.04,-0.03 0,-0.06 -0.03,-0.11 -0.03,-0.17 C -1.71,5.479 -1.72,5.44 -1.74,5.4 -1.74,5.38 -1.76,5.37 -1.78,5.37 -1.94,5.349 -2.1,5.34 -2.26,5.31 -2.29,5.299 -2.33,5.31 -2.34,5.28 -2.35,4.95 -2.35,4.63 -2.34,4.31 -2.32,4.03 -2.29,3.74 -2.25,3.47 -2.16,2.86 -1.97,2.28 -1.69,1.75 -1.28,1.09 -0.74,0.42 -0.07,0.02 -0.05,0.01 -0.03,-0.01 0,0 m -0.17,-0.47 c -0.79,0.44 -1.44,1.19 -1.89,1.96 -0.24,0.42 -0.39,0.85 -0.52,1.32 -0.21,0.89 -0.25,1.84 -0.18,2.829 0,0.02 0.02,0.03 0.03,0.041 0.2,0.029 0.41,0.049 0.62,0.079 0.02,0.01 0.03,0.03 0.04,0.05 0.02,0.08 0.03,0.18 0.06,0.26 0.05,0.04 0.12,0.03 0.17,0.04 0.12,0.03 0.25,0.04 0.37,0.06 l 0.02,0.02 0.08,0.27 c 0,0.04 0,0.08 0.03,0.1 0.13,0.03 0.26,0.04 0.38,0.05 l 1.06,0.14 c 0.1,0.02 0.22,0.03 0.33,0 0.13,-0.03 0.27,-0.05 0.4,-0.08 l 0.65,-0.14 c 0.1,-0.02 0.21,-0.04 0.31,-0.07 0.03,-0.05 0.02,-0.11 0.04,-0.16 0,-0.07 0.01,-0.12 0.03,-0.18 l 0.02,-0.02 c 0.2,-0.05 0.39,-0.09 0.57,-0.13 0.06,-0.02 0.05,-0.09 0.06,-0.13 l 0.04,-0.2 C 2.58,5.599 2.63,5.599 2.67,5.589 2.85,5.549 3.04,5.519 3.21,5.459 3.25,5.44 3.24,5.38 3.24,5.34 3.25,4.68 3.17,3.97 3.02,3.33 2.91,2.79 2.71,2.29 2.47,1.83 2.28,1.48 2.08,1.17 1.81,0.87 1.42,0.42 0.95,0 0.45,-0.31 0.29,-0.39 0.13,-0.48 -0.03,-0.54 c -0.05,0.01 -0.09,0.05 -0.14,0.07"
         style="fill:#ffd51f;fill-opacity:1;fill-rule:nonzero;stroke:none"
         id="path7646"
         inkscape:connector-curvature="0" />
    </g>
    <g
       id="g7648"
       transform="matrix(20.115582,-0.6832349,-0.6832349,-20.115582,495.1291,1025.9668)">
      <path
         d="m 0,0 c -0.46,0.6 -0.68,1.32 -0.83,2.07 0,0.01 -0.01,0.02 -0.02,0.01 C -0.95,1.92 -1.04,1.75 -1.14,1.59 -1.16,1.58 -1.16,1.57 -1.18,1.58 -1.24,1.64 -1.26,1.71 -1.31,1.78 -1.64,2.57 -1.75,3.43 -1.72,4.35 l 0.02,0.04 c 0.11,0.119 0.24,0.23 0.38,0.31 0.01,0.01 0.03,0.01 0.04,0.01 L -1.27,4.68 -1.29,4.14 c 0.01,-0.54 0.03,-1.09 0.2,-1.59 0.01,0 0.02,-0.02 0.03,-0.01 0.06,0.07 0.1,0.16 0.14,0.23 l 0,0.07 c -0.03,0.44 -0.05,0.89 -0.03,1.34 l 0.02,0.63 c 0.01,0.05 0,0.12 0.04,0.149 0.11,0.1 0.26,0.12 0.39,0.17 0.02,0 0.04,0 0.04,-0.02 -0.01,-0.2 -0.02,-0.369 -0.02,-0.57 L -0.5,3.98 c 0.01,-0.36 0,-0.73 0.03,-1.09 0.01,-0.15 0.03,-0.3 0.04,-0.45 0.03,-0.22 0.06,-0.43 0.11,-0.64 l 0.01,-0.01 0.01,0 0.03,0.23 0.05,1.26 0.09,1.939 c 0.01,0.02 0.04,0.02 0.06,0.03 0.12,0.02 0.24,0.06 0.37,0.05 l 0.01,-0.02 0,-0.19 L 0.25,3.52 C 0.25,3.34 0.24,3.18 0.23,3 L 0.21,2.41 0.21,2.4 0.16,1.2 0.11,-0.05 C 0.1,-0.06 0.11,-0.08 0.1,-0.08 0.05,-0.08 0.03,-0.03 0,0 M 1.09,3.11 C 1.42,3.25 1.77,3.4 1.96,3.72 2.03,3.84 2,4.01 1.91,4.11 1.77,4.28 1.59,4.4 1.41,4.52 1.31,4.56 1.23,4.64 1.12,4.65 1.11,4.65 1.1,4.64 1.1,4.64 L 1.08,4.4 1.03,3.29 1.03,3.12 C 1.04,3.09 1.07,3.1 1.09,3.11 M 0.99,1.02 C 1.16,1.21 1.31,1.41 1.44,1.63 1.54,1.82 1.64,1.98 1.68,2.19 1.71,2.36 1.66,2.52 1.52,2.61 1.36,2.69 1.18,2.62 1.05,2.54 1.03,2.52 0.99,2.51 1,2.48 L 0.95,1.51 C 0.95,1.35 0.93,1.19 0.94,1.03 0.93,0.98 0.97,1.01 0.99,1.02 M 0.38,-0.06 0.4,0.39 0.45,1.42 0.52,3.03 0.58,3.94 0.65,5.249 c 0,0.02 0.01,0.03 0.02,0.04 0.19,-0.02 0.35,-0.1 0.52,-0.16 C 1.32,5.069 1.45,5.019 1.57,4.949 1.77,4.82 1.98,4.68 2.17,4.53 2.38,4.35 2.51,4.11 2.51,3.83 2.5,3.76 2.49,3.66 2.46,3.59 2.36,3.32 2.07,3.16 1.86,3 1.85,2.99 1.85,2.97 1.86,2.97 2.08,2.83 2.2,2.58 2.18,2.32 L 2.17,2.18 C 2.13,2.02 2.06,1.86 2,1.71 1.95,1.65 1.92,1.56 1.88,1.48 1.56,0.92 1.09,0.41 0.55,0 0.5,-0.02 0.46,-0.06 0.41,-0.08 c -0.02,0 -0.02,0.01 -0.03,0.02"
         style="fill:#ffd51f;fill-opacity:1;fill-rule:nonzero;stroke:none"
         id="path7650"
         inkscape:connector-curvature="0" />
    </g>
    <g
       id="g7652"
       transform="matrix(20.115582,-0.6832349,-0.6832349,-20.115582,482.86523,759.76592)">
      <path
         d="m 0,0 0.76,-1.63 1.4,1.53 1.92,-0.23 -2.54,-2.92 -0.27,-2.279 -1.87,0.23 0.28,2.269 -1.6,3.19"
         style="fill:#000000;fill-opacity:1;fill-rule:nonzero;stroke:none"
         id="path7654"
         inkscape:connector-curvature="0" />
    </g>
    <g
       id="g7656"
       transform="matrix(20.115582,-0.6832349,-0.6832349,-20.115582,480.10029,862.16487)">
      <path
         d="M 0,0 1.36,-0.17 1.61,1.93 3.88,4.549 2.57,4.71 0.99,2.99 0.14,4.839 -1.17,4.949 0.26,2.1 0,0 Z m 1.8,-0.73 -2.37,0.29 0.3,2.45 -1.76,3.519 2.5,-0.21 L 1.14,3.9 2.37,5.249 4.89,4.939 2.1,1.72"
         style="fill:#000000;fill-opacity:1;fill-rule:nonzero;stroke:none"
         id="path7658"
         inkscape:connector-curvature="0" />
    </g>
    <g
       id="g7660"
       transform="matrix(20.115582,-0.6832349,-0.6832349,-20.115582,375.57171,767.05531)">
      <path
         d="m 0,0 4.06,0.47 0.13,-1.45 -1.61,-0.16 0.05,-0.49 1.48,0.14 0.12,-1.36 -1.46,-0.14 0.05,-0.5 1.66,0.16 0.14,-1.39 -3.6,-0.319"
         style="fill:#001522;fill-opacity:1;fill-rule:nonzero;stroke:none"
         id="path7662"
         inkscape:connector-curvature="0" />
    </g>
    <g
       id="g7664"
       transform="matrix(20.115582,-0.6832349,-0.6832349,-20.115582,381.95724,771.24882)"
       style="fill:#000000">
      <path
         d="m 0,0 0.92,-4.55 3.1,0.28 -0.08,0.88 -1.67,-0.16 -0.1,1.01 1.48,0.14 -0.08,0.85 -1.48,-0.13 -0.1,0.99 1.62,0.15 L 3.52,0.41 0,0 Z M 0.51,-5.089 -0.61,0.43 3.97,0.97 4.17,-0.99 4.03,-1 4.21,-2.86 4.4,-2.84 4.58,-4.73"
         style="fill:#000000;fill-opacity:1;fill-rule:nonzero;stroke:none"
         id="path7666"
         inkscape:connector-curvature="0" />
    </g>
    <g
       id="g7668"
       transform="matrix(20.115582,-0.6832349,-0.6832349,-20.115582,287.95554,772.02497)">
      <path
         d="m 0,0 2.049,-0.12 1.49,-2.96 -0.16,2.92 1.65,-0.08 -0.25,-5.219 -1.74,0.09 -1.48,2.809 -0.13,-2.739 -1.682,0.08"
         style="fill:#000000;fill-opacity:1;fill-rule:nonzero;stroke:none"
         id="path7670"
         inkscape:connector-curvature="0" />
    </g>
    <g
       id="g7672"
       transform="matrix(20.115582,-0.6832349,-0.6832349,-20.115582,293.02807,777.29015)"
       style="fill:#000000">
      <path
         d="m 0,0 -0.223,-4.71 1.159,-0.05 0.18,3.42 1.84,-3.52 1.34,-0.06 0.23,4.71 -1.11,0.05 0.14,-2.64 -0.49,-0.13 -1.43,2.84 L 0,0 Z m -0.759,-5.19 0.273,5.72 2.452,-0.13 1.01,-2 -0.11,1.97 2.19,-0.1 -0.28,-5.719 -2.15,0.1 -1.1,2.109 -0.1,-2.049 m 7.66,6.299 0.77,-1.63 1.16,1.39 1.91,-0.23 -2.3,-2.71 -0.27,-2.23 -1.86,0.22 0.27,2.24 -1.48,3.18"
         style="fill:#000000;fill-opacity:1;fill-rule:nonzero;stroke:none"
         id="path7674"
         inkscape:connector-curvature="0" />
    </g>
    <g
       id="g7676"
       transform="matrix(20.115582,-0.6832349,-0.6832349,-20.115582,473.24647,850.11299)">
      <path
         d="M 0,0 1.26,-0.15 1.52,1.87 3.5,4.23 2.32,4.38 0.95,2.73 0.06,4.65 -1.03,4.789 0.25,2.02 0,0 Z m 1.79,-0.82 -2.47,0.3 0.3,2.45 L -2.04,5.519 0.47,5.199 1.1,3.86 2.06,5.01 4.69,4.7 2.09,1.63"
         style="fill:#000000;fill-opacity:1;fill-rule:nonzero;stroke:none"
         id="path7678"
         inkscape:connector-curvature="0" />
    </g>
    <g
       id="g7680"
       transform="matrix(20.115582,-0.6832349,-0.6832349,-20.115582,475.10892,750.78566)">
      <path
         d="m 0,0 0.77,-1.63 1.15,1.39 1.92,-0.23 -2.3,-2.71 -0.27,-2.229 -1.86,0.219 0.27,2.24 -1.6,3.18"
         style="fill:#ffd51f;fill-opacity:1;fill-rule:nonzero;stroke:none"
         id="path7682"
         inkscape:connector-curvature="0" />
    </g>
    <g
       id="g7684"
       transform="matrix(20.115582,-0.6832349,-0.6832349,-20.115582,372.30465,753.87468)">
      <path
         d="M 0,0 3.53,0.33 3.66,-1.05 2.06,-1.21 2.11,-1.77 3.58,-1.63 3.7,-2.91 2.24,-3.05 2.29,-3.63 3.96,-3.47 4.09,-4.86 0.5,-5.2"
         style="fill:#001522;fill-opacity:1;fill-rule:nonzero;stroke:none"
         id="path7686"
         inkscape:connector-curvature="0" />
    </g>
    <g
       id="g7688"
       transform="matrix(20.115582,-0.6832349,-0.6832349,-20.115582,379.12798,759.10053)">
      <path
         d="M 0,0 0.44,-4.599 3.43,-4.32 3.36,-3.53 1.69,-3.69 1.57,-2.51 3.04,-2.37 2.98,-1.69 1.5,-1.82 1.39,-0.66 3.01,-0.51 2.93,0.28 0,0 Z M -0.11,-5.25 -0.66,0.54 3.48,0.93 3.67,-1.05 3.53,-1.07 3.71,-2.89 3.9,-2.88 4.09,-4.86"
         style="fill:#000000;fill-opacity:1;fill-rule:nonzero;stroke:none"
         id="path7690"
         inkscape:connector-curvature="0" />
    </g>
    <g
       id="g7692"
       transform="matrix(20.115582,-0.6832349,-0.6832349,-20.115582,372.30465,753.87468)">
      <path
         d="M 0,0 3.53,0.33 3.66,-1.05 2.06,-1.21 2.11,-1.77 3.58,-1.63 3.7,-2.91 2.24,-3.05 2.29,-3.63 3.96,-3.47 4.09,-4.86 0.5,-5.2"
         style="fill:#ffd51f;fill-opacity:1;fill-rule:nonzero;stroke:none"
         id="path7694"
         inkscape:connector-curvature="0" />
    </g>
    <g
       id="g7696"
       transform="matrix(20.115582,-0.6832349,-0.6832349,-20.115582,275.74598,760.59808)">
      <path
         d="m 0,0 1.746,-0.08 1.5,-2.97 0.13,2.89 1.65,-0.08 -0.25,-5.209 -1.74,0.08 -1.48,2.809 -0.13,-2.729 -1.679,0.08"
         style="fill:#001522;fill-opacity:1;fill-rule:nonzero;stroke:none"
         id="path7698"
         inkscape:connector-curvature="0" />
    </g>
    <g
       id="g7700"
       transform="matrix(20.115582,-0.6832349,-0.6832349,-20.115582,281.85027,766.59348)">
      <path
         d="m 0,0 -0.233,-4.62 1.073,-0.05 0.183,3.55 1.9,-3.65 1.27,-0.06 0.22,4.62 -1.04,0.04 -0.17,-3.74 -1.94,3.84 L 0,0 Z m -0.87,-5.19 0.293,5.81 2.23,-0.1 1.05,-2.09 0.09,2.03 2.26,-0.1 -0.29,-5.819 -2.21,0.11 -1.03,1.969 -0.11,-1.919"
         style="fill:#000000;fill-opacity:1;fill-rule:nonzero;stroke:none"
         id="path7702"
         inkscape:connector-curvature="0" />
    </g>
    <g
       id="g7704"
       transform="matrix(20.115582,-0.6832349,-0.6832349,-20.115582,275.74598,760.59808)">
      <path
         d="m 0,0 1.746,-0.08 1.5,-2.97 0.13,2.89 1.65,-0.08 -0.25,-5.209 -1.74,0.08 -1.48,2.809 -0.13,-2.729 -1.679,0.08"
         style="fill:#ffd51f;fill-opacity:1;fill-rule:nonzero;stroke:none"
         id="path7706"
         inkscape:connector-curvature="0" />
    </g>
    <g
       id="g7708"
       transform="matrix(20.115582,-0.6832349,-0.6832349,-20.115582,484.72207,790.71657)">
      <path
         d="M 0,0 -0.75,1.62 -0.54,1.71 0.2,0.09 m 0.47,-3.15 -0.22,0.03 0.25,2.04 2,2.37 0.18,-0.14 -1.96,-2.33 m -4.78,1.22 -0.1,1.1 1.59,0.15 -0.06,0.6 L -2.2,2 -2.12,1.18 -3.71,1.03 -3.63,0.15"
         style="fill:#e1393e;fill-opacity:1;fill-rule:nonzero;stroke:none"
         id="path7710"
         inkscape:connector-curvature="0" />
    </g>
    <g
       id="g7712"
       transform="matrix(20.115582,-0.6832349,-0.6832349,-20.115582,411.89242,828.43314)">
      <path
         d="M 0,0 -0.1,1.11 1.37,1.25 1.32,1.82 1.54,1.84 1.62,1.05 0.15,0.91 0.24,0.03"
         style="fill:#e1393e;fill-opacity:1;fill-rule:nonzero;stroke:none"
         id="path7714"
         inkscape:connector-curvature="0" />
    </g>
    <g
       id="g7716"
       transform="matrix(20.115582,-0.6832349,-0.6832349,-20.115582,390.98062,853.10858)">
      <path
         d="M 0,0 -0.02,0.22 2.84,0.49 2.77,1.17 3.01,1.2 3.09,0.29 m -5.83,1.32 -1.42,2.78 0.2,0.1 1.43,-2.78"
         style="fill:#e1393e;fill-opacity:1;fill-rule:nonzero;stroke:none"
         id="path7718"
         inkscape:connector-curvature="0" />
    </g>
    <g
       id="g7720"
       transform="matrix(20.115582,-0.6832349,-0.6832349,-20.115582,343.9618,862.15695)">
      <path
         d="M 0,0 0.01,0.22 1.16,0.17 1.37,4.609 1.6,4.59 1.37,-0.07 m -4.576,0.219 0.01,0.22 1.002,-0.05 0.111,2.37 0.233,-0.01 -0.132,-2.59"
         style="fill:#e1393e;fill-opacity:1;fill-rule:nonzero;stroke:none"
         id="path7722"
         inkscape:connector-curvature="0" />
    </g>
    <g
       id="g7724"
       transform="matrix(20.115582,-0.6832349,-0.6832349,-20.115582,243.27789,825.09776)">
      <path
         d="m 0,0 c -0.324,0.28 -0.82,0.25 -1.093,-0.07 -0.283,-0.32 -0.253,-0.8 0.071,-1.08 0.324,-0.28 0.809,-0.25 1.093,0.07 C 0.354,-0.76 0.314,-0.27 0,0 m 1.579,-2.55 c -0.992,-1.13 -2.733,-1.25 -3.887,-0.26 -1.143,0.99 -1.255,2.7 -0.263,3.84 1.002,1.13 2.743,1.25 3.887,0.26 1.143,-0.99 1.265,-2.71 0.263,-3.84"
         style="fill:#000000;fill-opacity:1;fill-rule:nonzero;stroke:none"
         id="path7726"
         inkscape:connector-curvature="0" />
    </g>
    <g
       id="g7728"
       transform="matrix(20.115582,-0.6832349,-0.6832349,-20.115582,233.54265,826.63675)">
      <path
         d="m 0,0 c -0.162,0.01 -0.314,-0.06 -0.415,-0.18 -0.091,-0.1 -0.142,-0.23 -0.132,-0.37 0.011,-0.14 0.071,-0.26 0.183,-0.35 0.081,-0.08 0.192,-0.12 0.313,-0.13 0.152,0 0.304,0.06 0.415,0.18 0.183,0.21 0.162,0.54 -0.05,0.72 C 0.223,-0.05 0.111,-0.01 0,0 m -0.081,-1.53 c -0.233,0.01 -0.445,0.1 -0.628,0.25 -0.202,0.18 -0.323,0.43 -0.344,0.7 -0.02,0.27 0.071,0.53 0.253,0.73 0.355,0.41 1.033,0.46 1.448,0.1 0.425,-0.36 0.475,-1.01 0.101,-1.43 -0.213,-0.24 -0.516,-0.37 -0.83,-0.35 M 0.121,1.76 C -0.648,1.8 -1.387,1.49 -1.893,0.92 -2.328,0.42 -2.54,-0.21 -2.5,-0.87 c 0.051,-0.66 0.344,-1.26 0.85,-1.69 0.425,-0.37 0.952,-0.58 1.508,-0.61 0.77,-0.04 1.508,0.27 2.014,0.85 0.911,1.02 0.8,2.58 -0.243,3.48 -0.425,0.36 -0.941,0.57 -1.508,0.6 m -0.293,-5.43 c -0.678,0.03 -1.306,0.29 -1.812,0.73 -0.607,0.52 -0.971,1.24 -1.022,2.04 -0.061,0.79 0.203,1.55 0.729,2.15 0.617,0.7 1.498,1.07 2.429,1.02 C 0.83,2.23 1.457,1.98 1.974,1.54 3.218,0.46 3.35,-1.42 2.257,-2.66 1.65,-3.35 0.759,-3.72 -0.172,-3.67"
         style="fill:#000000;fill-opacity:1;fill-rule:nonzero;stroke:none"
         id="path7730"
         inkscape:connector-curvature="0" />
    </g>
    <g
       id="g7732"
       transform="matrix(20.115582,-0.6832349,-0.6832349,-20.115582,135.66111,831.16967)">
      <path
         d="m 0,0 c -0.415,-0.1 -0.668,-0.51 -0.567,-0.93 0.101,-0.41 0.517,-0.66 0.931,-0.56 0.415,0.1 0.668,0.51 0.577,0.92 C 0.84,-0.16 0.415,0.1 0,0 M 3.026,-0.2 C 3.38,-1.66 2.47,-3.13 0.992,-3.48 c -1.478,-0.35 -2.966,0.54 -3.32,2 -0.354,1.47 0.557,2.93 2.035,3.28 1.477,0.36 2.965,-0.54 3.319,-2"
         style="fill:#000000;fill-opacity:1;fill-rule:nonzero;stroke:none"
         id="path7734"
         inkscape:connector-curvature="0" />
    </g>
    <g
       id="g7736"
       transform="matrix(20.115582,-0.6832349,-0.6832349,-20.115582,140.10278,835.65073)">
      <path
         d="m 0,0 c -0.051,0 -0.101,-0.01 -0.152,-0.02 -0.273,-0.06 -0.445,-0.34 -0.384,-0.62 0.06,-0.21 0.253,-0.38 0.485,-0.39 0.041,0 0.091,0 0.142,0.02 0.142,0.03 0.253,0.11 0.324,0.23 0.071,0.11 0.091,0.25 0.061,0.38 C 0.425,-0.18 0.223,-0.02 0,0 m -0.081,-1.53 c -0.455,0.02 -0.84,0.34 -0.951,0.77 -0.132,0.55 0.212,1.1 0.759,1.23 C 0.273,0.6 0.84,0.25 0.972,-0.28 1.042,-0.54 0.992,-0.82 0.85,-1.05 0.708,-1.28 0.476,-1.44 0.212,-1.51 0.111,-1.53 0.02,-1.54 -0.081,-1.53 m 0.354,3.38 c -0.243,0.02 -0.486,0 -0.718,-0.06 -1.336,-0.32 -2.166,-1.65 -1.842,-2.98 0.253,-1.05 1.204,-1.83 2.297,-1.88 0.233,-0.02 0.476,0.01 0.709,0.06 1.346,0.32 2.165,1.66 1.842,2.98 C 2.307,1.02 1.366,1.8 0.273,1.85 M -0.02,-3.58 c -1.316,0.07 -2.46,1 -2.763,2.27 -0.395,1.6 0.607,3.21 2.216,3.59 0.284,0.07 0.577,0.1 0.861,0.08 C 1.619,2.29 2.753,1.36 3.067,0.09 3.451,-1.51 2.459,-3.12 0.84,-3.5 0.557,-3.57 0.273,-3.59 -0.02,-3.58"
         style="fill:#000000;fill-opacity:1;fill-rule:nonzero;stroke:none"
         id="path7738"
         inkscape:connector-curvature="0" />
    </g>
    <g
       id="g7740"
       transform="matrix(20.115582,-0.6832349,-0.6832349,-20.115582,22.791749,844.46856)">
      <path
         d="m 0,0 1.812,0.63 1.194,-3.34 1.518,0.52 0.557,-1.58 -3.33,-1.15"
         style="fill:#000000;fill-opacity:1;fill-rule:nonzero;stroke:none"
         id="path7742"
         inkscape:connector-curvature="0" />
    </g>
    <g
       id="g7744"
       transform="matrix(20.115582,-0.6832349,-0.6832349,-20.115582,29.612859,847.25769)">
      <path
         d="M 0,0 1.579,-4.45 4.423,-3.46 4.028,-2.36 2.51,-2.89 1.326,0.46 0,0 Z M 1.265,-5.089 -0.658,0.31 1.64,1.1 2.824,-2.24 4.342,-1.71 5.081,-3.77"
         style="fill:#000000;fill-opacity:1;fill-rule:nonzero;stroke:none"
         id="path7746"
         inkscape:connector-curvature="0" />
    </g>
    <g
       id="g7748"
       transform="matrix(20.115582,-0.6832349,-0.6832349,-20.115582,246.47392,810.69067)">
      <path
         d="m 0,0 c -0.425,0.36 -1.063,0.32 -1.437,-0.1 -0.365,-0.42 -0.324,-1.06 0.101,-1.42 0.425,-0.37 1.063,-0.32 1.437,0.1 C 0.465,-1.01 0.425,-0.37 0,0 M 1.407,-2.55 C 0.405,-3.68 -1.336,-3.8 -2.48,-2.81 c -1.143,0.98 -1.265,2.7 -0.263,3.83 1.002,1.14 2.733,1.25 3.887,0.27 1.143,-0.99 1.265,-2.71 0.263,-3.84"
         style="fill:#ffd51f;fill-opacity:1;fill-rule:nonzero;stroke:none"
         id="path7750"
         inkscape:connector-curvature="0" />
    </g>
    <g
       id="g7752"
       transform="matrix(20.115582,-0.6832349,-0.6832349,-20.115582,233.88233,812.32668)">
      <path
         d="m 0,0 c -0.223,0.01 -0.435,-0.07 -0.577,-0.24 -0.263,-0.29 -0.233,-0.74 0.071,-1 0.283,-0.25 0.749,-0.21 1.002,0.07 0.132,0.15 0.192,0.33 0.172,0.51 -0.01,0.19 -0.091,0.37 -0.243,0.49 C 0.304,-0.07 0.162,-0.01 0,0 m -0.111,-2.01 c -0.294,0.02 -0.577,0.13 -0.8,0.32 -0.546,0.47 -0.607,1.3 -0.131,1.84 C -0.577,0.68 0.294,0.74 0.83,0.28 1.093,0.05 1.255,-0.27 1.275,-0.61 1.306,-0.96 1.184,-1.3 0.951,-1.56 0.688,-1.87 0.294,-2.03 -0.111,-2.01 M 0.091,1.71 C -0.668,1.75 -1.387,1.45 -1.882,0.89 -2.318,0.4 -2.53,-0.22 -2.48,-0.87 c 0.041,-0.64 0.334,-1.23 0.83,-1.66 0.415,-0.36 0.931,-0.56 1.478,-0.59 0.759,-0.04 1.478,0.26 1.974,0.83 0.435,0.48 0.647,1.11 0.597,1.75 C 2.358,0.11 2.065,0.7 1.569,1.12 1.154,1.48 0.638,1.68 0.091,1.71 m -0.293,-5.43 c -0.689,0.04 -1.326,0.29 -1.853,0.74 -0.607,0.53 -0.981,1.27 -1.032,2.07 -0.061,0.81 0.203,1.58 0.739,2.19 0.628,0.71 1.528,1.08 2.47,1.03 C 0.81,2.28 1.447,2.02 1.964,1.57 2.581,1.04 2.955,0.31 3.006,-0.5 3.067,-1.3 2.804,-2.08 2.267,-2.69 1.64,-3.39 0.739,-3.77 -0.202,-3.72"
         style="fill:#001522;fill-opacity:1;fill-rule:nonzero;stroke:none"
         id="path7754"
         inkscape:connector-curvature="0" />
    </g>
    <g
       id="g7756"
       transform="matrix(20.115582,-0.6832349,-0.6832349,-20.115582,246.47392,810.69067)">
      <path
         d="m 0,0 c -0.425,0.36 -1.063,0.32 -1.437,-0.1 -0.365,-0.42 -0.324,-1.06 0.101,-1.42 0.425,-0.37 1.063,-0.32 1.437,0.1 C 0.465,-1.01 0.425,-0.37 0,0 M 1.407,-2.55 C 0.405,-3.68 -1.336,-3.8 -2.48,-2.81 c -1.143,0.98 -1.265,2.7 -0.263,3.83 1.002,1.14 2.733,1.25 3.887,0.27 1.143,-0.99 1.265,-2.71 0.263,-3.84"
         style="fill:#ffd51f;fill-opacity:1;fill-rule:nonzero;stroke:none"
         id="path7758"
         inkscape:connector-curvature="0" />
    </g>
    <g
       id="g7760"
       transform="matrix(20.115582,-0.6832349,-0.6832349,-20.115582,233.88233,812.32668)">
      <path
         d="m 0,0 c -0.223,0.01 -0.435,-0.07 -0.577,-0.24 -0.263,-0.29 -0.233,-0.74 0.071,-1 0.283,-0.25 0.749,-0.21 1.002,0.07 0.132,0.15 0.192,0.33 0.172,0.51 -0.01,0.19 -0.091,0.37 -0.243,0.49 C 0.304,-0.07 0.162,-0.01 0,0 m -0.111,-2.01 c -0.294,0.02 -0.577,0.13 -0.8,0.32 -0.546,0.47 -0.607,1.3 -0.131,1.84 C -0.577,0.68 0.294,0.74 0.83,0.28 1.093,0.05 1.255,-0.27 1.275,-0.61 1.306,-0.96 1.184,-1.3 0.951,-1.56 0.688,-1.87 0.294,-2.03 -0.111,-2.01 M 0.091,1.71 C -0.668,1.75 -1.387,1.45 -1.882,0.89 -2.318,0.4 -2.53,-0.22 -2.48,-0.87 c 0.041,-0.64 0.334,-1.23 0.83,-1.66 0.415,-0.36 0.931,-0.56 1.478,-0.59 0.759,-0.04 1.478,0.26 1.974,0.83 0.435,0.48 0.647,1.11 0.597,1.75 C 2.358,0.11 2.065,0.7 1.569,1.12 1.154,1.48 0.638,1.68 0.091,1.71 m -0.293,-5.43 c -0.689,0.04 -1.326,0.29 -1.853,0.74 -0.607,0.53 -0.981,1.27 -1.032,2.07 -0.061,0.81 0.203,1.58 0.739,2.19 0.628,0.71 1.528,1.08 2.47,1.03 C 0.81,2.28 1.447,2.02 1.964,1.57 2.581,1.04 2.955,0.31 3.006,-0.5 3.067,-1.3 2.804,-2.08 2.267,-2.69 1.64,-3.39 0.739,-3.77 -0.202,-3.72"
         style="fill:#001522;fill-opacity:1;fill-rule:nonzero;stroke:none"
         id="path7762"
         inkscape:connector-curvature="0" />
    </g>
    <g
       id="g7764"
       transform="matrix(20.115582,-0.6832349,-0.6832349,-20.115582,246.47392,810.69067)">
      <path
         d="m 0,0 c -0.425,0.36 -1.063,0.32 -1.437,-0.1 -0.365,-0.42 -0.324,-1.06 0.101,-1.42 0.425,-0.37 1.063,-0.32 1.437,0.1 C 0.465,-1.01 0.425,-0.37 0,0 M 1.407,-2.55 C 0.405,-3.68 -1.336,-3.8 -2.48,-2.81 c -1.143,0.98 -1.265,2.7 -0.263,3.83 1.002,1.14 2.733,1.25 3.887,0.27 1.143,-0.99 1.265,-2.71 0.263,-3.84"
         style="fill:#ffd51f;fill-opacity:1;fill-rule:nonzero;stroke:none"
         id="path7766"
         inkscape:connector-curvature="0" />
    </g>
    <g
       id="g7768"
       transform="matrix(20.115582,-0.6832349,-0.6832349,-20.115582,233.88233,812.32668)">
      <path
         d="m 0,0 c -0.223,0.01 -0.435,-0.07 -0.577,-0.24 -0.263,-0.29 -0.233,-0.74 0.071,-1 0.283,-0.25 0.749,-0.21 1.002,0.07 0.132,0.15 0.192,0.33 0.172,0.51 -0.01,0.19 -0.091,0.37 -0.243,0.49 C 0.304,-0.07 0.162,-0.01 0,0 m -0.111,-2.01 c -0.294,0.02 -0.577,0.13 -0.8,0.32 -0.546,0.47 -0.607,1.3 -0.131,1.84 C -0.577,0.68 0.294,0.74 0.83,0.28 1.093,0.05 1.255,-0.27 1.275,-0.61 1.306,-0.96 1.184,-1.3 0.951,-1.56 0.688,-1.87 0.294,-2.03 -0.111,-2.01 M 0.091,1.71 C -0.668,1.75 -1.387,1.45 -1.882,0.89 -2.318,0.4 -2.53,-0.22 -2.48,-0.87 c 0.041,-0.64 0.334,-1.23 0.83,-1.66 0.415,-0.36 0.931,-0.56 1.478,-0.59 0.759,-0.04 1.478,0.26 1.974,0.83 0.435,0.48 0.647,1.11 0.597,1.75 C 2.358,0.11 2.065,0.7 1.569,1.12 1.154,1.48 0.638,1.68 0.091,1.71 m -0.293,-5.43 c -0.689,0.04 -1.326,0.29 -1.853,0.74 -0.607,0.53 -0.981,1.27 -1.032,2.07 -0.061,0.81 0.203,1.58 0.739,2.19 0.628,0.71 1.528,1.08 2.47,1.03 C 0.81,2.28 1.447,2.02 1.964,1.57 2.581,1.04 2.955,0.31 3.006,-0.5 3.067,-1.3 2.804,-2.08 2.267,-2.69 1.64,-3.39 0.739,-3.77 -0.202,-3.72"
         style="fill:#000000;fill-opacity:1;fill-rule:nonzero;stroke:none"
         id="path7770"
         inkscape:connector-curvature="0" />
    </g>
    <g
       id="g7772"
       transform="matrix(20.115582,-0.6832349,-0.6832349,-20.115582,246.47392,810.69067)">
      <path
         d="m 0,0 c -0.425,0.36 -1.063,0.32 -1.437,-0.1 -0.365,-0.42 -0.324,-1.06 0.101,-1.42 0.425,-0.37 1.063,-0.32 1.437,0.1 C 0.465,-1.01 0.425,-0.37 0,0 M 1.407,-2.55 C 0.405,-3.68 -1.336,-3.8 -2.48,-2.81 c -1.143,0.98 -1.265,2.7 -0.263,3.83 1.002,1.14 2.733,1.25 3.887,0.27 1.143,-0.99 1.265,-2.71 0.263,-3.84"
         style="fill:#ffd51f;fill-opacity:1;fill-rule:nonzero;stroke:none"
         id="path7774"
         inkscape:connector-curvature="0" />
    </g>
    <g
       id="g7776"
       transform="matrix(20.115582,-0.6832349,-0.6832349,-20.115582,125.73034,820.43064)">
      <path
         d="m 0,0 c -0.547,-0.13 -0.88,-0.67 -0.749,-1.21 0.132,-0.54 0.678,-0.88 1.225,-0.75 0.546,0.14 0.89,0.68 0.759,1.22 C 1.103,-0.2 0.547,0.13 0,0 M 2.915,-0.34 C 3.279,-1.8 2.368,-3.27 0.891,-3.62 c -1.478,-0.35 -2.966,0.55 -3.32,2.01 -0.364,1.46 0.546,2.92 2.024,3.28 1.478,0.35 2.966,-0.55 3.32,-2.01"
         style="fill:#ffd51f;fill-opacity:1;fill-rule:nonzero;stroke:none"
         id="path7778"
         inkscape:connector-curvature="0" />
    </g>
    <g
       id="g7780"
       transform="matrix(20.115582,-0.6832349,-0.6832349,-20.115582,131.60753,825.66849)">
      <path
         d="m 0,0 c -0.071,0 -0.142,0 -0.213,-0.02 -0.384,-0.09 -0.617,-0.47 -0.526,-0.85 0.071,-0.3 0.344,-0.53 0.658,-0.54 0.071,-0.01 0.142,0 0.213,0.02 0.374,0.09 0.617,0.47 0.526,0.85 C 0.577,-0.24 0.314,-0.02 0,0 m -0.111,-2.01 c -0.577,0.03 -1.083,0.44 -1.215,1 -0.172,0.7 0.263,1.4 0.972,1.57 C 0.344,0.73 1.073,0.28 1.245,-0.4 1.417,-1.1 0.972,-1.81 0.273,-1.98 0.142,-2.01 0.02,-2.02 -0.111,-2.01 M 0.091,1.71 C -0.152,1.72 -0.385,1.7 -0.617,1.65 -1.255,1.49 -1.791,1.11 -2.135,0.56 -2.469,0 -2.571,-0.65 -2.419,-1.27 c 0.243,-1.04 1.174,-1.8 2.247,-1.85 0.233,-0.02 0.476,0.01 0.708,0.06 0.628,0.15 1.174,0.54 1.508,1.09 0.345,0.55 0.446,1.2 0.294,1.83 C 2.085,0.89 1.164,1.65 0.091,1.71 m -0.293,-5.43 c -1.346,0.07 -2.5,1.02 -2.814,2.31 -0.192,0.78 -0.061,1.59 0.364,2.28 0.425,0.69 1.104,1.17 1.893,1.36 0.293,0.07 0.587,0.09 0.881,0.08 C 1.457,2.24 2.611,1.29 2.925,0 3.117,-0.78 2.996,-1.6 2.561,-2.28 2.135,-2.97 1.468,-3.45 0.678,-3.64 0.385,-3.71 0.091,-3.74 -0.202,-3.72"
         style="fill:#001522;fill-opacity:1;fill-rule:nonzero;stroke:none"
         id="path7782"
         inkscape:connector-curvature="0" />
    </g>
    <g
       id="g7784"
       transform="matrix(20.115582,-0.6832349,-0.6832349,-20.115582,125.73034,820.43064)">
      <path
         d="m 0,0 c -0.547,-0.13 -0.88,-0.67 -0.749,-1.21 0.132,-0.54 0.678,-0.88 1.225,-0.75 0.546,0.14 0.89,0.68 0.759,1.22 C 1.103,-0.2 0.547,0.13 0,0 M 2.915,-0.34 C 3.279,-1.8 2.368,-3.27 0.891,-3.62 c -1.478,-0.35 -2.966,0.55 -3.32,2.01 -0.364,1.46 0.546,2.92 2.024,3.28 1.478,0.35 2.966,-0.55 3.32,-2.01"
         style="fill:#ffd51f;fill-opacity:1;fill-rule:nonzero;stroke:none"
         id="path7786"
         inkscape:connector-curvature="0" />
    </g>
    <g
       id="g7788"
       transform="matrix(20.115582,-0.6832349,-0.6832349,-20.115582,131.60753,825.66849)">
      <path
         d="m 0,0 c -0.071,0 -0.142,0 -0.213,-0.02 -0.384,-0.09 -0.617,-0.47 -0.526,-0.85 0.071,-0.3 0.344,-0.53 0.658,-0.54 0.071,-0.01 0.142,0 0.213,0.02 0.374,0.09 0.617,0.47 0.526,0.85 C 0.577,-0.24 0.314,-0.02 0,0 m -0.111,-2.01 c -0.577,0.03 -1.083,0.44 -1.215,1 -0.172,0.7 0.263,1.4 0.972,1.57 C 0.344,0.73 1.073,0.28 1.245,-0.4 1.417,-1.1 0.972,-1.81 0.273,-1.98 0.142,-2.01 0.02,-2.02 -0.111,-2.01 M 0.091,1.71 C -0.152,1.72 -0.385,1.7 -0.617,1.65 -1.255,1.49 -1.791,1.11 -2.135,0.56 -2.469,0 -2.571,-0.65 -2.419,-1.27 c 0.243,-1.04 1.174,-1.8 2.247,-1.85 0.233,-0.02 0.476,0.01 0.708,0.06 0.628,0.15 1.174,0.54 1.508,1.09 0.345,0.55 0.446,1.2 0.294,1.83 C 2.085,0.89 1.164,1.65 0.091,1.71 m -0.293,-5.43 c -1.346,0.07 -2.5,1.02 -2.814,2.31 -0.192,0.78 -0.061,1.59 0.364,2.28 0.425,0.69 1.104,1.17 1.893,1.36 0.293,0.07 0.587,0.09 0.881,0.08 C 1.457,2.24 2.611,1.29 2.925,0 3.117,-0.78 2.996,-1.6 2.561,-2.28 2.135,-2.97 1.468,-3.45 0.678,-3.64 0.385,-3.71 0.091,-3.74 -0.202,-3.72"
         style="fill:#000000;fill-opacity:1;fill-rule:nonzero;stroke:none"
         id="path7790"
         inkscape:connector-curvature="0" />
    </g>
    <g
       id="g7792"
       transform="matrix(20.115582,-0.6832349,-0.6832349,-20.115582,125.73034,820.43064)">
      <path
         d="m 0,0 c -0.547,-0.13 -0.88,-0.67 -0.749,-1.21 0.132,-0.54 0.678,-0.88 1.225,-0.75 0.546,0.14 0.89,0.68 0.759,1.22 C 1.103,-0.2 0.547,0.13 0,0 M 2.915,-0.34 C 3.279,-1.8 2.368,-3.27 0.891,-3.62 c -1.478,-0.35 -2.966,0.55 -3.32,2.01 -0.364,1.46 0.546,2.92 2.024,3.28 1.478,0.35 2.966,-0.55 3.32,-2.01"
         style="fill:#ffd51f;fill-opacity:1;fill-rule:nonzero;stroke:none"
         id="path7794"
         inkscape:connector-curvature="0" />
    </g>
    <g
       id="g7796"
       transform="matrix(20.115582,-0.6832349,-0.6832349,-20.115582,7.8474595,836.71924)">
      <path
         d="m 0,0 1.812,0.63 1.184,-3.35 1.528,0.53 0.557,-1.58 -3.33,-1.16"
         style="fill:#001522;fill-opacity:1;fill-rule:nonzero;stroke:none"
         id="path7798"
         inkscape:connector-curvature="0" />
    </g>
    <g
       id="g7800"
       transform="matrix(20.115582,-0.6832349,-0.6832349,-20.115582,15.721679,840.27816)">
      <path
         d="M 0,0 1.548,-4.35 4.312,-3.4 3.947,-2.38 2.429,-2.91 1.245,0.43 0,0 Z m 1.174,-5.12 -1.943,5.49 2.388,0.83 1.185,-3.35 1.518,0.53 0.759,-2.15"
         style="fill:#000000;fill-opacity:1;fill-rule:nonzero;stroke:none"
         id="path7802"
         inkscape:connector-curvature="0" />
    </g>
    <g
       id="g7804"
       transform="matrix(20.115582,-0.6832349,-0.6832349,-20.115582,7.8474595,836.71924)">
      <path
         d="m 0,0 1.812,0.63 1.184,-3.35 1.528,0.53 0.557,-1.58 -3.33,-1.16"
         style="fill:#ffd51f;fill-opacity:1;fill-rule:nonzero;stroke:none"
         id="path7806"
         inkscape:connector-curvature="0" />
    </g>
    <g
       id="g7808"
       transform="matrix(20.115582,-0.6832349,-0.6832349,-20.115582,206.25305,839.04277)">
      <path
         d="m 0,0 c -0.101,0.22 -0.142,0.45 -0.122,0.68 0.041,0.81 0.749,1.42 1.559,1.38 0.01,0 0.01,0 0.01,0 C 1.629,2.05 1.801,2.01 1.963,1.94 L 1.872,1.73 C 1.731,1.79 1.589,1.83 1.437,1.84 0.729,1.88 0.142,1.35 0.101,0.67 0.091,0.47 0.121,0.28 0.202,0.09"
         style="fill:#e1393e;fill-opacity:1;fill-rule:nonzero;stroke:none"
         id="path7810"
         inkscape:connector-curvature="0" />
    </g>
    <g
       id="g7812"
       transform="matrix(20.115582,-0.6832349,-0.6832349,-20.115582,232.54731,875.00365)">
      <path
         d="m 0,0 c -0.587,0.03 -1.144,0.26 -1.569,0.65 l 0.152,0.17 C -1.022,0.46 -0.516,0.25 0.03,0.22 0.638,0.19 1.214,0.4 1.65,0.79 2.095,1.18 2.358,1.72 2.389,2.31 2.409,2.83 2.237,3.34 1.903,3.75 L 2.085,3.9 C 2.449,3.44 2.642,2.87 2.611,2.3 2.581,1.65 2.297,1.06 1.812,0.62 1.316,0.19 0.688,-0.03 0.02,0 0.01,0 0.01,0 0,0 m -5.303,0.47 c -0.233,0.05 -0.436,0.15 -0.628,0.3 -0.303,0.24 -0.496,0.59 -0.546,0.98 -0.041,0.39 0.07,0.78 0.323,1.08 0.112,0.14 0.243,0.25 0.395,0.34 L -5.637,2.98 C -5.769,2.9 -5.88,2.81 -5.971,2.69 -6.184,2.43 -6.285,2.11 -6.245,1.78 -6.214,1.45 -6.042,1.15 -5.789,0.94 -5.627,0.82 -5.445,0.73 -5.253,0.69"
         style="fill:#e1393e;fill-opacity:1;fill-rule:nonzero;stroke:none"
         id="path7814"
         inkscape:connector-curvature="0" />
    </g>
    <g
       id="g7816"
       transform="matrix(20.115582,-0.6832349,-0.6832349,-20.115582,142.26792,887.53526)">
      <path
         d="M 0,0 -0.051,0.22 C 0.476,0.33 0.951,0.62 1.275,1.04 2.045,2.01 1.883,3.4 0.921,4.14 0.506,4.46 -0.02,4.62 -0.557,4.59 l -0.01,0.23 C 0.02,4.849 0.597,4.669 1.063,4.32 2.126,3.5 2.298,1.97 1.457,0.9 1.093,0.44 0.577,0.12 0,0 m -4.635,-1.89 -0.081,0.21 2.641,0.92 -0.324,0.93 0.213,0.07 0.405,-1.14"
         style="fill:#e1393e;fill-opacity:1;fill-rule:nonzero;stroke:none"
         id="path7818"
         inkscape:connector-curvature="0" />
    </g>
    <g
       id="g7820"
       transform="matrix(20.115582,-0.6832349,-0.6832349,-20.115582,62.183579,894.28312)">
      <path
         d="M 0,0 -1.113,3.14 -0.901,3.21 0.213,0.07"
         style="fill:#e1393e;fill-opacity:1;fill-rule:nonzero;stroke:none"
         id="path7822"
         inkscape:connector-curvature="0" />
    </g>
    <g
       id="g7824"
       transform="matrix(20.115582,-0.6832349,-0.6832349,-20.115582,755.86726,792.98612)">
      <path
         d="m 0,0 2.01,-0.35 1.14,-3.12 0.18,2.92 1.63,-0.26 -0.87,-5.149 -1.72,0.28 -1.13,2.959 -0.45,-2.699 -1.66,0.27"
         style="fill:#000000;fill-opacity:1;fill-rule:nonzero;stroke:none"
         id="path7826"
         inkscape:connector-curvature="0" />
    </g>
    <g
       id="g7828"
       transform="matrix(20.115582,-0.6832349,-0.6832349,-20.115582,811.08683,900.86695)">
      <path
         d="M 0,0 1.31,-0.22 2.1,4.43 1.01,4.61 0.84,1.97 0.34,1.9 -0.74,4.88 -2.36,5.16 -3.14,0.51 -1.99,0.32 -1.41,3.7 0,0 Z M 1.74,-0.8 -0.38,-0.46 -1.23,1.77 -1.57,-0.26 -3.73,0.1 -2.77,5.74 -0.37,5.33 0.4,3.22 0.53,5.199 2.69,4.84"
         style="fill:#000000;fill-opacity:1;fill-rule:nonzero;stroke:none"
         id="path7830"
         inkscape:connector-curvature="0" />
    </g>
    <g
       id="g7832"
       transform="matrix(20.115582,-0.6832349,-0.6832349,-20.115582,759.06229,798.11368)">
      <path
         d="m 0,0 -0.63,-2.62 c -0.36,-1.48 -1.41,-1.94 -2.78,-1.62 -1.37,0.33 -2.1,1.21 -1.73,2.7 l 0.73,3 1.78,-0.43 -0.7,-2.82 c -0.09,-0.4 -0.17,-0.75 0.3,-0.87 0.48,-0.11 0.58,0.24 0.67,0.63 l 0.59,2.46"
         style="fill:#000000;fill-opacity:1;fill-rule:nonzero;stroke:none"
         id="path7834"
         inkscape:connector-curvature="0" />
    </g>
    <g
       id="g7836"
       transform="matrix(20.115582,-0.6832349,-0.6832349,-20.115582,673.38877,777.86402)">
      <path
         d="m 0,0 -0.68,-2.75 c -0.15,-0.65 -0.09,-1.18 0.18,-1.58 0.28,-0.389 0.73,-0.66 1.37,-0.809 1.31,-0.31 2.17,0.17 2.47,1.429 l 0.58,2.38 -1.28,0.3 -0.53,-2.2 C 2.02,-3.59 1.88,-4.229 1.13,-4.049 0.4,-3.88 0.56,-3.23 0.65,-2.88 L 1.27,-0.3 0,0 Z m 1.44,-5.739 c -0.23,0.02 -0.45,0.05 -0.69,0.11 -0.77,0.18 -1.33,0.52 -1.67,1.009 -0.36,0.53 -0.45,1.2 -0.26,1.99 L -0.38,0.61 1.89,0.07 1.14,-3 C 1.02,-3.5 1.08,-3.52 1.25,-3.56 1.42,-3.6 1.49,-3.65 1.62,-3.12 l 0.64,2.7 2.26,-0.54 -0.67,-2.87 C 3.52,-5.119 2.67,-5.799 1.44,-5.739 m 10.29,-1.05 c 0.11,-0.48 0.33,-0.55 0.62,-0.64 0.21,-0.07 0.49,-0.1 0.59,0.13 0.05,0.13 0.04,0.24 0.01,0.35 -0.03,0.11 -0.09,0.21 -0.16,0.32 -0.19,0.35 -0.35,0.67 -0.43,1.01 -0.08,0.32 -0.06,0.67 0.1,1.05 0.26,0.619 1.15,1.549 2.41,0.959 0.35,-0.16 0.68,-0.439 0.93,-0.75 l -0.55,-1.379 c -0.18,0.36 -0.41,0.73 -0.72,0.85 -0.24,0.09 -0.49,0.01 -0.56,-0.24 -0.04,-0.12 -0.03,-0.24 0.02,-0.36 0.04,-0.12 0.11,-0.24 0.17,-0.34 0.21,-0.36 0.37,-0.67 0.43,-0.98 0.07,-0.32 0.05,-0.64 -0.12,-1.04 -0.42,-0.97 -1.48,-1.45 -2.5,-0.97 -0.37,0.17 -0.57,0.25 -0.86,0.55"
         style="fill:#000000;fill-opacity:1;fill-rule:nonzero;stroke:none"
         id="path7838"
         inkscape:connector-curvature="0" />
    </g>
    <g
       id="g7840"
       transform="matrix(20.115582,-0.6832349,-0.6832349,-20.115582,908.71804,935.2104)">
      <path
         d="M 0,0 C 0.17,-0.16 0.32,-0.22 0.57,-0.34 L 0.66,-0.38 C 1.51,-0.78 2.44,-0.4 2.82,0.46 2.95,0.79 2.99,1.06 2.93,1.35 2.88,1.6 2.76,1.86 2.52,2.25 L 2.47,2.34 C 2.42,2.43 2.35,2.53 2.32,2.63 2.25,2.82 2.25,2.99 2.3,3.15 2.42,3.52 2.82,3.71 3.2,3.56 3.45,3.46 3.64,3.27 3.79,3.05 L 4.09,3.8 C 3.87,4.05 3.6,4.25 3.34,4.37 3.13,4.47 2.93,4.52 2.74,4.53 1.94,4.57 1.43,3.9 1.27,3.54 1.14,3.24 1.12,2.95 1.18,2.64 1.26,2.33 1.42,2.02 1.6,1.7 1.67,1.59 1.74,1.47 1.78,1.33 1.84,1.16 1.83,0.99 1.76,0.82 1.63,0.51 1.28,0.4 0.85,0.54 0.68,0.59 0.49,0.65 0.34,0.81 L 0,0 Z M 1.26,-1.05 C 0.99,-1.03 0.7,-0.96 0.44,-0.84 L 0.35,-0.8 C 0.03,-0.65 -0.2,-0.55 -0.5,-0.23 L -0.61,-0.11 0.38,2.25 0.56,1.48 C 0.64,1.14 0.75,1.1 1.01,1.02 1.07,1 1.13,0.99 1.18,0.98 1.27,0.98 1.28,1 1.28,1.01 1.31,1.07 1.31,1.12 1.29,1.18 1.26,1.27 1.21,1.36 1.16,1.44 0.96,1.8 0.78,2.15 0.68,2.53 0.59,2.95 0.63,3.34 0.81,3.74 1.09,4.4 1.83,5.09 2.76,5.039 3.02,5.02 3.3,4.95 3.56,4.83 3.93,4.66 4.3,4.36 4.58,4.01 L 4.67,3.89 3.86,1.84 3.61,2.36 C 3.4,2.77 3.2,3.01 3.01,3.08 2.86,3.15 2.8,3.04 2.79,3.01 2.77,2.95 2.78,2.88 2.8,2.8 2.83,2.73 2.87,2.65 2.91,2.59 L 2.96,2.5 C 3.14,2.2 3.36,1.84 3.43,1.45 3.52,1.07 3.47,0.69 3.29,0.26 2.92,-0.58 2.12,-1.09 1.26,-1.05"
         style="fill:#000000;fill-opacity:1;fill-rule:nonzero;stroke:none"
         id="path7842"
         inkscape:connector-curvature="0" />
    </g>
    <g
       id="g7844"
       transform="matrix(20.115582,-0.6832349,-0.6832349,-20.115582,860.1086,814.41761)">
      <path
         d="M 0,0 3.38,-1.06 2.94,-2.45 1.39,-1.97 1.25,-2.44 2.65,-2.88 2.24,-4.19 0.82,-3.75 0.67,-4.22 2.27,-4.719 1.84,-6.049 -1.6,-4.98"
         style="fill:#000000;fill-opacity:1;fill-rule:nonzero;stroke:none"
         id="path7846"
         inkscape:connector-curvature="0" />
    </g>
    <g
       id="g7848"
       transform="matrix(20.115582,-0.6832349,-0.6832349,-20.115582,837.64694,912.0481)">
      <path
         d="M 0,0 2.96,-0.92 3.22,-0.08 1.63,0.42 1.93,1.38 3.34,0.94 3.61,1.76 2.2,2.2 2.5,3.16 4.04,2.68 4.34,3.59 1.44,4.49 0,0 Z M 3.29,-1.56 -0.63,-0.33 1.11,5.13 4.98,3.92 4.38,2.04 4.25,2.08 3.68,0.31 3.87,0.25"
         style="fill:#000000;fill-opacity:1;fill-rule:nonzero;stroke:none"
         id="path7850"
         inkscape:connector-curvature="0" />
    </g>
    <g
       id="g7852"
       transform="matrix(20.115582,-0.6832349,-0.6832349,-20.115582,904.62043,891.6484)">
      <path
         d="M 0,0 C 0.08,-0.38 0.39,-0.64 0.76,-0.81 0.97,-0.91 1.25,-0.9 1.35,-0.67 1.4,-0.54 1.4,-0.43 1.36,-0.32 1.33,-0.21 1.27,-0.11 1.2,0 1.01,0.35 0.84,0.67 0.76,1 0.69,1.33 0.7,1.68 0.86,2.06 1.13,2.68 2.02,3.6 3.27,3.02 3.63,2.86 3.97,2.57 4.2,2.27 L 3.67,0.99 C 3.43,1.33 3.27,1.61 2.94,1.74 2.71,1.84 2.45,1.75 2.37,1.5 2.34,1.38 2.34,1.26 2.39,1.14 2.43,1.02 2.51,0.9 2.57,0.8 2.79,0.44 2.95,0.13 3.01,-0.18 3.08,-0.5 3.05,-0.82 2.88,-1.22 2.45,-2.2 1.41,-2.65 0.39,-2.17 0,-2 -0.34,-1.74 -0.62,-1.44"
         style="fill:#001522;fill-opacity:1;fill-rule:nonzero;stroke:none"
         id="path7854"
         inkscape:connector-curvature="0" />
    </g>
    <g
       id="g7856"
       transform="matrix(20.115582,-0.6832349,-0.6832349,-20.115582,900.12522,919.39123)">
      <path
         d="M 0,0 C 0.23,-0.22 0.51,-0.4 0.78,-0.53 1.61,-0.91 2.51,-0.56 2.87,0.27 3.01,0.59 3.04,0.85 2.98,1.13 2.94,1.37 2.82,1.62 2.57,2.01 L 2.51,2.12 C 2.46,2.21 2.41,2.31 2.37,2.41 2.31,2.59 2.3,2.78 2.35,2.95 2.47,3.35 2.92,3.55 3.32,3.39 3.56,3.29 3.73,3.15 3.87,2.97 L 4.13,3.59 C 3.92,3.81 3.66,4 3.42,4.12 3.22,4.21 3.02,4.26 2.84,4.27 2.12,4.31 1.59,3.72 1.42,3.31 1.29,3.02 1.27,2.74 1.33,2.44 1.4,2.13 1.56,1.82 1.74,1.51 1.8,1.41 1.87,1.28 1.92,1.14 1.99,0.95 1.98,0.77 1.89,0.58 1.79,0.33 1.54,0.19 1.24,0.2 1.12,0.21 1,0.24 0.9,0.29 0.66,0.4 0.46,0.54 0.3,0.69 L 0,0 Z m 1.38,-1.29 c -0.3,0.02 -0.58,0.09 -0.85,0.22 -0.41,0.19 -0.79,0.46 -1.11,0.79 L -0.72,-0.13 0.39,2.39 0.57,1.43 C 0.62,1.19 0.81,0.99 1.16,0.83 1.24,0.79 1.33,0.79 1.34,0.82 1.36,0.87 1.36,0.9 1.35,0.95 1.32,1.03 1.28,1.11 1.22,1.21 1.01,1.57 0.83,1.92 0.74,2.31 0.64,2.73 0.68,3.14 0.86,3.55 1.15,4.22 1.9,4.92 2.87,4.87 3.13,4.86 3.4,4.79 3.67,4.66 4.06,4.49 4.43,4.18 4.72,3.83 L 4.83,3.69 4,1.74 3.59,2.32 C 3.4,2.6 3.29,2.75 3.09,2.83 3.01,2.87 2.95,2.83 2.94,2.78 2.92,2.73 2.93,2.67 2.95,2.61 2.98,2.54 3.01,2.47 3.05,2.41 L 3.11,2.3 C 3.3,1.99 3.5,1.63 3.57,1.25 3.66,0.85 3.61,0.47 3.42,0.03 3.06,-0.82 2.26,-1.33 1.38,-1.29"
         style="fill:#000000;fill-opacity:1;fill-rule:nonzero;stroke:none"
         id="path7858"
         inkscape:connector-curvature="0" />
    </g>
    <g
       id="g7860"
       transform="matrix(20.115582,-0.6832349,-0.6832349,-20.115582,904.62043,891.6484)">
      <path
         d="M 0,0 C 0.08,-0.38 0.39,-0.64 0.76,-0.81 0.97,-0.91 1.25,-0.9 1.35,-0.67 1.4,-0.54 1.4,-0.43 1.36,-0.32 1.33,-0.21 1.27,-0.11 1.2,0 1.01,0.35 0.84,0.67 0.76,1 0.69,1.33 0.7,1.68 0.86,2.06 1.13,2.68 2.02,3.6 3.27,3.02 3.63,2.86 3.97,2.57 4.2,2.27 L 3.65,0.97 C 3.59,1.32 3.27,1.61 2.94,1.74 2.71,1.84 2.45,1.75 2.37,1.5 2.34,1.38 2.34,1.26 2.39,1.14 2.43,1.02 2.51,0.9 2.57,0.8 2.79,0.44 2.95,0.13 3.01,-0.18 3.08,-0.5 3.05,-0.82 2.88,-1.22 2.45,-2.2 1.41,-2.65 0.39,-2.17 0,-2 -0.34,-1.74 -0.62,-1.44"
         style="fill:#ffd51f;fill-opacity:1;fill-rule:nonzero;stroke:none"
         id="path7862"
         inkscape:connector-curvature="0" />
    </g>
    <g
       id="g7864"
       transform="matrix(20.115582,-0.6832349,-0.6832349,-20.115582,849.78048,800.87265)">
      <path
         d="M 0,0 3.4,-1.06 2.97,-2.39 1.43,-1.91 1.26,-2.44 2.67,-2.88 2.27,-4.12 0.86,-3.67 0.68,-4.23 2.28,-4.729 1.86,-6.049 -1.58,-4.98"
         style="fill:#001522;fill-opacity:1;fill-rule:nonzero;stroke:none"
         id="path7866"
         inkscape:connector-curvature="0" />
    </g>
    <g
       id="g7868"
       transform="matrix(20.115582,-0.6832349,-0.6832349,-20.115582,828.90764,897.845)">
      <path
         d="M 0,0 2.86,-0.9 3.11,-0.14 1.51,0.36 1.86,1.48 3.28,1.04 3.48,1.7 2.07,2.14 2.43,3.25 3.98,2.77 4.22,3.52 1.41,4.4 0,0 Z M 3.26,-1.65 -0.77,-0.39 1.01,5.16 4.98,3.91 4.37,2.02 4.24,2.06 3.67,0.31 3.86,0.25"
         style="fill:#000000;fill-opacity:1;fill-rule:nonzero;stroke:none"
         id="path7870"
         inkscape:connector-curvature="0" />
    </g>
    <g
       id="g7872"
       transform="matrix(20.115582,-0.6832349,-0.6832349,-20.115582,849.78048,800.87265)">
      <path
         d="M 0,0 3.4,-1.06 2.97,-2.39 1.43,-1.91 1.26,-2.44 2.67,-2.88 2.27,-4.12 0.86,-3.67 0.68,-4.23 2.28,-4.729 1.86,-6.049 -1.58,-4.98"
         style="fill:#ffd51f;fill-opacity:1;fill-rule:nonzero;stroke:none"
         id="path7874"
         inkscape:connector-curvature="0" />
    </g>
    <g
       id="g7876"
       transform="matrix(20.115582,-0.6832349,-0.6832349,-20.115582,928.37664,932.93159)">
      <path
         d="M 0,0 C -0.33,0.01 -0.66,0.12 -0.96,0.32 -1.02,0.36 -1.1,0.41 -1.17,0.47 l 0.16,0.17 C -0.96,0.59 -0.9,0.55 -0.84,0.51 -0.42,0.23 0.08,0.15 0.49,0.28 0.89,0.4 1.18,0.67 1.35,1.08 1.51,1.42 1.47,1.69 1.36,2 1.31,2.13 1.18,2.35 1.06,2.57 1,2.67 0.94,2.77 0.89,2.86 0.7,3.22 0.68,3.59 0.85,3.89 1.01,4.16 1.29,4.33 1.62,4.34 2,4.35 2.46,4.1 2.66,3.77 L 2.47,3.65 C 2.31,3.92 1.93,4.13 1.63,4.11 1.37,4.11 1.16,3.98 1.05,3.78 0.92,3.55 0.93,3.26 1.09,2.97 1.14,2.88 1.2,2.78 1.25,2.68 1.39,2.44 1.53,2.22 1.58,2.08 1.7,1.72 1.75,1.4 1.57,0.99 1.36,0.53 1.01,0.2 0.57,0.06 0.38,0.01 0.19,-0.01 0,0"
         style="fill:#e1393e;fill-opacity:1;fill-rule:nonzero;stroke:none"
         id="path7878"
         inkscape:connector-curvature="0" />
    </g>
    <g
       id="g7880"
       transform="matrix(20.115582,-0.6832349,-0.6832349,-20.115582,871.97233,849.45892)">
      <path
         d="M 0,0 -0.22,0.06 0.12,1.12 1.64,0.64 1.83,1.22 2.04,1.15 1.79,0.36 0.26,0.84 m -0.84,-2.64 -0.21,0.07 0.33,1.06 1.42,-0.44 0.17,0.54 0.21,-0.07 -0.24,-0.75 -1.41,0.44 m 1,-2.391 -2.95,0.93 0.06,0.21 2.74,-0.86 0.22,0.66 0.21,-0.07"
         style="fill:#e1393e;fill-opacity:1;fill-rule:nonzero;stroke:none"
         id="path7882"
         inkscape:connector-curvature="0" />
    </g>
    <g
       id="g7884"
       transform="matrix(20.115582,-0.6832349,-0.6832349,-20.115582,744.36637,780.48792)">
      <path
         d="M 0,0 1.73,-0.29 2.87,-3.41 3.34,-0.55 4.97,-0.82 4.1,-5.969 2.38,-5.679 1.26,-2.72 0.79,-5.429 -0.86,-5.149"
         style="fill:#001522;fill-opacity:1;fill-rule:nonzero;stroke:none"
         id="path7886"
         inkscape:connector-curvature="0" />
    </g>
    <g
       id="g7888"
       transform="matrix(20.115582,-0.6832349,-0.6832349,-20.115582,800.3701,887.73797)">
      <path
         d="M 0,0 1.25,-0.2 2.02,4.35 0.99,4.52 0.38,0.83 -1.09,4.87 -2.35,5.07 -3.11,0.51 -2.05,0.34 -1.45,3.85 0,0 Z m 1.75,-0.89 -2.19,0.36 -0.79,2.08 -0.33,-1.9 -2.25,0.37 0.97,5.739 2.19,-0.36 L 0.15,3.2 0.49,5.209 2.72,4.85"
         style="fill:#000000;fill-opacity:1;fill-rule:nonzero;stroke:none"
         id="path7890"
         inkscape:connector-curvature="0" />
    </g>
    <g
       id="g7892"
       transform="matrix(20.115582,-0.6832349,-0.6832349,-20.115582,744.36637,780.48792)">
      <path
         d="M 0,0 1.73,-0.29 2.87,-3.41 3.34,-0.55 4.97,-0.82 4.1,-5.969 2.38,-5.679 1.26,-2.72 0.79,-5.429 -0.86,-5.149"
         style="fill:#ffd51f;fill-opacity:1;fill-rule:nonzero;stroke:none"
         id="path7894"
         inkscape:connector-curvature="0" />
    </g>
    <g
       id="g7896"
       transform="matrix(20.115582,-0.6832349,-0.6832349,-20.115582,795.83294,849.02421)">
      <path
         d="M 0,0 -1.08,2.93 -0.87,3 0.21,0.08"
         style="fill:#e1393e;fill-opacity:1;fill-rule:nonzero;stroke:none"
         id="path7898"
         inkscape:connector-curvature="0" />
    </g>
    <g
       id="g7900"
       transform="matrix(20.115582,-0.6832349,-0.6832349,-20.115582,827.53058,892.87722)">
      <path
         d="m 0,0 -1.35,0.22 0.03,0.22 1.14,-0.19 0.74,4.39 0.22,-0.041 m -4.09,-4.058 -1.2,0.2 0.03,0.22 0.99,-0.16 0.39,2.33 0.23,-0.03"
         style="fill:#e1393e;fill-opacity:1;fill-rule:nonzero;stroke:none"
         id="path7902"
         inkscape:connector-curvature="0" />
    </g>
    <g
       id="g7904"
       transform="matrix(20.115582,-0.6832349,-0.6832349,-20.115582,585.61268,772.78986)">
      <path
         d="m 0,0 4.03,-0.35 -0.16,-1.64 -1.05,0.1 -0.31,-3.569 -1.92,0.17 0.32,3.559 -1.05,0.09"
         style="fill:#000000;fill-opacity:1;fill-rule:nonzero;stroke:none"
         id="path7906"
         inkscape:connector-curvature="0" />
    </g>
    <g
       id="g7908"
       transform="matrix(20.115582,-0.6832349,-0.6832349,-20.115582,606.57039,873.98028)">
      <path
         d="M 0,0 1.4,-0.12 1.72,3.44 2.77,3.35 2.87,4.48 -0.64,4.789 -0.74,3.65 0.32,3.57 0,0 Z m 1.87,-0.67 -2.43,0.21 0.33,3.56 -1.06,0.09 0.18,2.149 4.54,-0.4 L 3.24,2.8 2.18,2.89"
         style="fill:#000000;fill-opacity:1;fill-rule:nonzero;stroke:none"
         id="path7910"
         inkscape:connector-curvature="0" />
    </g>
    <g
       id="g7912"
       transform="matrix(20.115582,-0.6832349,-0.6832349,-20.115582,750.8884,776.84281)">
      <path
         d="m 0,0 -0.73,-3 c -0.37,-1.48 -1.42,-1.94 -2.79,-1.62 -1.36,0.33 -2.09,1.21 -1.73,2.69 l 0.73,3.01 1.77,-0.43 -0.69,-2.82 c -0.09,-0.4 -0.17,-0.75 0.31,-0.87 0.47,-0.11 0.57,0.24 0.67,0.63 l 0.68,2.83"
         style="fill:#001522;fill-opacity:1;fill-rule:nonzero;stroke:none"
         id="path7914"
         inkscape:connector-curvature="0" />
    </g>
    <g
       id="g7916"
       transform="matrix(20.115582,-0.6832349,-0.6832349,-20.115582,663.9063,765.49866)">
      <path
         d="m 0,0 -0.65,-2.71 c -0.15,-0.6 -0.1,-1.1 0.14,-1.48 0.24,-0.4 0.71,-0.69 1.36,-0.849 1.29,-0.3 2.12,0.169 2.42,1.399 L 3.93,-0.93 2.76,-0.65 2.13,-3.19 C 2.05,-3.53 1.91,-4.1 1.29,-4.07 1.23,-4.06 1.17,-4.06 1.1,-4.04 0.32,-3.85 0.49,-3.15 0.57,-2.81 L 1.19,-0.28 0,0 Z m 1.4,-5.719 c -0.21,0.01 -0.45,0.04 -0.69,0.1 -0.82,0.2 -1.4,0.57 -1.75,1.119 -0.32,0.52 -0.39,1.17 -0.2,1.94 l 0.8,3.29 2.37,-0.57 -0.77,-3.12 c -0.11,-0.45 -0.07,-0.46 0.08,-0.5 0.03,0 0.06,-0.01 0.08,-0.01 0.08,0 0.12,0.01 0.22,0.43 L 2.3,0.07 4.67,-0.49 3.86,-3.78 C 3.54,-5.099 2.67,-5.789 1.4,-5.719"
         style="fill:#000000;fill-opacity:1;fill-rule:nonzero;stroke:none"
         id="path7918"
         inkscape:connector-curvature="0" />
    </g>
    <g
       id="g7920"
       transform="matrix(20.115582,-0.6832349,-0.6832349,-20.115582,750.8884,776.84281)">
      <path
         d="m 0,0 -0.73,-3 c -0.37,-1.48 -1.42,-1.94 -2.79,-1.62 -1.36,0.33 -2.09,1.21 -1.73,2.69 l 0.73,3.01 1.77,-0.43 -0.69,-2.82 c -0.09,-0.4 -0.17,-0.75 0.31,-0.87 0.47,-0.11 0.57,0.24 0.67,0.63 l 0.68,2.83"
         style="fill:#ffd51f;fill-opacity:1;fill-rule:nonzero;stroke:none"
         id="path7922"
         inkscape:connector-curvature="0" />
    </g>
    <g
       id="g7924"
       transform="matrix(20.115582,-0.6832349,-0.6832349,-20.115582,573.50907,760.33228)">
      <path
         d="M 0,0 4.03,-0.35 3.88,-1.99 2.83,-1.9 2.51,-5.459 0.6,-5.289 0.91,-1.73 -0.14,-1.64"
         style="fill:#001522;fill-opacity:1;fill-rule:nonzero;stroke:none"
         id="path7926"
         inkscape:connector-curvature="0" />
    </g>
    <g
       id="g7928"
       transform="matrix(20.115582,-0.6832349,-0.6832349,-20.115582,595.44456,860.6638)">
      <path
         d="M 0,0 1.32,-0.11 1.63,3.45 2.68,3.36 2.77,4.4 -0.64,4.7 -0.74,3.65 0.33,3.56 0,0 Z m 1.86,-0.76 -2.52,0.22 0.33,3.56 -1.06,0.09 0.2,2.239 4.62,-0.4 L 3.24,2.71 2.18,2.8"
         style="fill:#000000;fill-opacity:1;fill-rule:nonzero;stroke:none"
         id="path7930"
         inkscape:connector-curvature="0" />
    </g>
    <g
       id="g7932"
       transform="matrix(20.115582,-0.6832349,-0.6832349,-20.115582,573.50907,760.33228)">
      <path
         d="M 0,0 4.03,-0.35 3.88,-1.99 2.83,-1.9 2.51,-5.459 0.6,-5.289 0.91,-1.73 -0.14,-1.64"
         style="fill:#ffd51f;fill-opacity:1;fill-rule:nonzero;stroke:none"
         id="path7934"
         inkscape:connector-curvature="0" />
    </g>
    <g
       id="g7936"
       transform="matrix(20.115582,-0.6832349,-0.6832349,-20.115582,695.99595,868.32486)">
      <path
         d="m 0,0 c -0.24,0.01 -0.5,0.05 -0.8,0.13 -0.41,0.1 -0.9,0.4 -1,0.57 l 0.19,0.11 C -1.56,0.73 -1.13,0.44 -0.74,0.34 0,0.15 0.57,0.18 0.97,0.42 1.35,0.64 1.61,1.06 1.76,1.7 L 2.39,4.27 2.61,4.22 1.99,1.65 C 1.81,0.95 1.52,0.48 1.08,0.23 0.79,0.05 0.43,-0.03 0,0"
         style="fill:#e1393e;fill-opacity:1;fill-rule:nonzero;stroke:none"
         id="path7938"
         inkscape:connector-curvature="0" />
    </g>
    <g
       id="g7940"
       transform="matrix(20.115582,-0.6832349,-0.6832349,-20.115582,694.35543,849.67165)">
      <path
         d="M 0,0 C -0.41,0.03 -0.71,0.14 -0.87,0.36 -1.08,0.64 -1.03,1 -0.97,1.29 L -0.3,3.99 -0.08,3.94 -0.75,1.23 C -0.8,1 -0.85,0.7 -0.69,0.49 -0.56,0.33 -0.3,0.24 0.08,0.23 L 0.07,0 C 0.05,0 0.03,0 0,0 m -3.54,-0.489 -0.22,0.02 0.32,3.69 1.07,-0.1 0.08,0.91 0.24,-0.02 -0.11,-1.13 -1.07,0.09 m -1.43,0.13 -0.85,0.08 0.02,0.22 0.86,-0.07"
         style="fill:#e1393e;fill-opacity:1;fill-rule:nonzero;stroke:none"
         id="path7942"
         inkscape:connector-curvature="0" />
    </g>
  </g>
</svg>
